# xmcd CD database file
#
# Track frame offsets:
#	150
#	10677
#	21359
#	32889
#	49314
#	64691
#	77680
#	93026
#	104015
#	119263
#	129102
#	141540
#	158564
#	176134
#
# Disc length: 2490 seconds
#
# Revision: 0
# Processed by: cddbd v1.5.2PL0 Copyright (c) Steve Scherf et al.
# Submitted via: CDex 1.51
#
DISCID=b509b80e
DTITLE=Mario Adler Trio feat. Søren Leyers - My tribute to django
DYEAR=2005
DGENRE=Jazz
TTITLE0=django's tiger
TTITLE1=this thing called love
TTITLE2=bolero
TTITLE3=it has to be you
TTITLE4=melodie au crepuscule
TTITLE5=st. germain de près
TTITLE6=just the way you are
TTITLE7=vis a vis
TTITLE8=just one of these things
TTITLE9=valse a sinto
TTITLE10=fascinatin' rhythm
TTITLE11=witchcraft
TTITLE12=isn't she lovely
TTITLE13=auf wiedersehehn
EXTD=YEAR: 2005
EXTT0=
EXTT1=
EXTT2=
EXTT3=
EXTT4=
EXTT5=
EXTT6=
EXTT7=
EXTT8=
EXTT9=
EXTT10=
EXTT11=
EXTT12=
EXTT13=
PLAYORDER=
